<?xml version="1.0" encoding="iso-8859-1"?>
<!-- Uploaded to: SVG Repo, www.svgrepo.com, Generator: SVG Repo Mixer Tools -->
<svg fill="#000000" height="800px" width="800px" version="1.1" id="Layer_1" xmlns="http://www.w3.org/2000/svg" xmlns:xlink="http://www.w3.org/1999/xlink" 
	 viewBox="0 0 503.607 503.607" xml:space="preserve">
<g transform="translate(1 1)">
	<g>
		<g>
			<path d="M334.551,225.959L385.098,9.911c0-2.518,0-5.036-1.679-7.554C381.741-0.161,379.223-1,376.705-1h-42.807H166.869h-41.967
				c-2.518,0-5.036,1.679-6.715,3.357c-1.679,2.518-1.679,5.036-1.679,7.554l50.668,215.749
				c-40.59,26.987-67.455,73.106-67.455,125.864c0,83.934,67.987,151.082,151.082,151.082s151.082-67.987,151.082-151.082
				C401.885,299.346,375.074,253.13,334.551,225.959z M318.898,216.769c-5.247-2.671-10.666-5.049-16.239-7.102l38.307-193.88
				h24.828L318.898,216.769z M323.826,15.787l-36.931,188.852c-23.502-5.875-48.682-5.875-72.184,0L176.941,15.787H323.826z
				 M135.813,15.787h23.989l38.348,194.088c-5.303,1.97-10.468,4.227-15.473,6.756L135.813,15.787z M250.803,485.82
				c-73.862,0-134.295-60.433-134.295-134.295c0-47.573,25.074-89.57,62.655-113.442c0.589-0.111,1.19-0.316,1.974-0.708
				c27.363-16.965,60.433-22.86,91.769-17.702c0.655,0.115,1.312,0.22,1.966,0.346c0.236,0.042,0.471,0.088,0.707,0.132
				c4.952,0.979,9.856,2.241,14.673,3.795c0.583,0.194,1.166,0.291,1.739,0.326c9.93,3.184,19.512,7.544,28.478,13.103
				c0.918,0.612,1.836,0.996,2.755,1.202c37.149,23.956,61.875,65.704,61.875,112.948
				C385.098,425.387,324.666,485.82,250.803,485.82z"/>
			<path d="M167.708,290.252c1.679,0,4.197-1.679,6.715-1.679c7.554-9.233,16.787-16.787,26.859-22.662
				c4.197-2.518,5.875-7.554,3.357-11.751c-2.518-4.197-7.554-5.875-11.751-3.357c-11.751,6.715-21.823,15.108-31.056,26.02
				c-3.357,3.357-2.518,8.393,0.839,11.751C163.511,289.413,166.03,290.252,167.708,290.252z"/>
			<path d="M233.177,252.482c11.751-1.679,23.502-1.679,35.252,0c0.839,0,0.839,0,1.679,0c3.357,0,7.554-2.518,7.554-6.715
				c0.839-5.036-2.518-9.233-6.715-10.072c-13.43-2.518-27.698-2.518-41.128,0c-4.197,0.839-7.554,5.875-6.715,10.072
				S228.98,253.321,233.177,252.482z"/>
			<path d="M301.164,264.233c10.072,5.875,19.305,13.43,26.859,22.662c1.679,2.518,4.197,3.357,6.715,3.357
				c1.679,0,3.357-0.839,5.036-3.357c3.357-2.518,4.197-8.393,0.839-11.751c-8.393-10.072-19.305-19.305-31.056-26.02
				c-4.197-1.679-9.233-0.839-11.751,3.357C296.128,256.679,296.967,261.715,301.164,264.233z"/>
			<path d="M361.597,312.075c-1.679-4.197-6.715-6.715-10.911-5.036c-4.197,1.679-6.715,6.715-5.036,10.911
				c4.197,10.911,5.875,22.662,5.875,34.413c0,5.036,3.357,8.393,8.393,8.393s8.393-4.197,8.393-8.393
				C368.311,338.095,366.633,324.666,361.597,312.075z"/>
			<path d="M300.325,438.816c-10.072,5.875-20.984,10.072-32.734,11.751c-4.197,0.839-7.554,5.875-6.715,10.072
				s4.197,6.715,8.393,6.715c0.839,0,0.839,0,0.839,0c13.43-1.679,26.859-6.715,38.61-13.43c4.197-2.518,5.875-7.554,3.357-11.751
				C309.557,437.977,304.521,436.298,300.325,438.816z"/>
			<path d="M356.561,381.741c-4.197-1.679-9.233,0.839-10.911,5.036c-4.197,10.911-10.072,20.984-17.626,30.216
				c-3.357,3.357-2.518,8.393,0.839,11.751c0.839,0.839,3.357,1.679,5.036,1.679c2.518,0,5.036-0.839,7.554-2.518
				c8.393-10.911,15.108-22.662,20.144-35.252C363.275,388.456,360.757,383.42,356.561,381.741z"/>
			<path d="M232.338,449.728c-11.751-1.679-22.662-5.875-32.734-11.751c-4.197-1.679-9.233-0.839-11.751,3.357
				c-1.679,4.197-0.839,9.233,3.357,11.751c12.59,6.715,25.18,11.751,38.61,14.269c0.839,0,0.839,0,1.679,0
				c4.197,0,7.554-2.518,7.554-7.554C239.892,454.764,236.534,450.567,232.338,449.728z"/>
			<path d="M150.082,351.525c0-11.751,1.679-23.502,5.875-34.413c1.679-4.197-0.839-9.233-5.036-10.911s-9.233,0.839-10.911,5.036
				c-4.197,12.59-6.715,26.859-6.715,40.289c0,5.036,3.357,8.393,8.393,8.393S150.082,356.561,150.082,351.525z"/>
			<path d="M155.957,385.938c-1.679-4.197-6.715-6.715-10.911-5.036c-4.197,1.679-6.715,6.715-5.036,10.911
				c4.197,12.59,10.911,24.341,20.144,35.252c1.679,2.518,4.197,3.357,6.715,3.357c1.679,0,4.197-0.839,5.875-2.518
				c3.357-2.518,4.197-8.393,0.839-11.751C166.03,406.921,160.154,396.849,155.957,385.938z"/>
			<path d="M317.951,317.951h-44.485l-15.108-44.485c-0.839-3.357-4.197-5.875-7.554-5.875s-6.715,2.518-7.554,5.875l-15.108,44.485
				h-44.485c-3.357,0-6.715,2.518-7.554,5.875c-1.679,3.357,0,6.715,2.518,9.233l37.771,30.216l-15.108,44.485
				c-1.679,3.357,0,6.715,2.518,9.233c2.518,2.518,5.875,2.518,9.233,0.839l37.771-22.662l37.771,22.662
				c0.839,0.839,2.518,0.839,4.197,0.839s3.357,0,5.036-1.679c2.518-2.518,3.357-5.875,2.518-9.233l-15.108-44.485l37.77-30.216
				c2.518-2.518,3.357-5.875,2.518-9.233C324.666,320.469,321.308,317.951,317.951,317.951z M270.948,353.203
				c-2.518,2.518-3.357,5.875-2.518,9.233l9.233,28.538L255,377.544c-0.839-0.839-2.518-0.839-4.197-0.839s-3.357,0.839-3.357,0.839
				l-22.662,13.43l9.233-28.538c1.679-3.357,0-6.715-2.518-9.233l-23.502-18.466h26.02c3.357,0,6.715-1.679,7.554-5.036
				l9.233-26.859l9.233,26.02c0.839,3.357,4.197,5.875,7.554,5.875h26.859L270.948,353.203z"/>
		</g>
	</g>
</g>
</svg>